<?xml version="1.0" encoding="utf-8"?>
<!-- Generator: Adobe Illustrator 16.0.0, SVG Export Plug-In . SVG Version: 6.00 Build 0)  -->
<!DOCTYPE svg PUBLIC "-//W3C//DTD SVG 1.1 Tiny//EN" "http://www.w3.org/Graphics/SVG/1.1/DTD/svg11-tiny.dtd">
<svg version="1.1" baseProfile="tiny" id="Layer_1" xmlns="http://www.w3.org/2000/svg" xmlns:xlink="http://www.w3.org/1999/xlink"
	 x="0px" y="0px" width="500px" height="600px" viewBox="0 0 500 600" xml:space="preserve">
<g>
	<g>
		<g>
			<g>
				<path fill="#D3BE8A" d="M335.895,413.727c0,26.697-21.643,48.34-48.341,48.34h-78.551c-26.699,0-48.341-21.643-48.341-48.34
					v-47.535c0-26.697,21.642-48.338,48.341-48.338h78.551c26.698,0,48.341,21.641,48.341,48.338V413.727z"/>
				<path fill="#B9A17A" d="M328.887,343.771c-33.938-6.268-35.882,32.539-35.993,36.75l-132.257,0.166v5.75l132.75-0.166v76
					l5.501-0.834l0.249-75.166h0.125v-5.75h-0.125v-0.25h-0.443c8.773-40.076,27.443-29.375,27.443-29.375l4.75,2.625l2.5-2.666
					L328.887,343.771z"/>
			</g>
			<g>
				<polygon fill="#FEFDED" points="363.146,137.038 371.168,88.474 379.191,39.91 417.237,71.14 455.284,102.37 409.215,119.704 
									"/>
				<g>
					<path fill="#90D4D7" d="M422.055,93.688c0-0.265-0.027-0.523-0.04-0.786l-9.136-1.634l-1.161,6.495l9.281,1.66
						C421.67,97.636,422.055,95.708,422.055,93.688z"/>
					
						<rect x="402.554" y="90.086" transform="matrix(0.9844 0.1761 -0.1761 0.9844 22.785 -70.0222)" fill="#90D4D7" width="6.844" height="6.598"/>
					<path fill="#90D4D7" d="M410.454,87.787l1.635-9.145c-1.957-0.829-4.108-1.288-6.367-1.288c-0.121,0-0.238,0.016-0.358,0.018
						l-1.646,9.21L410.454,87.787z"/>
					<path fill="#90D4D7" d="M400.235,89.007l-9.55-1.708c-0.835,1.962-1.298,4.121-1.298,6.388c0,0.028,0.004,0.055,0.004,0.083
						l9.683,1.731L400.235,89.007z"/>
					<path fill="#90D4D7" d="M411.189,100.716l-1.577,8.819c4.225-1.035,7.796-3.705,10.015-7.311L411.189,100.716z"/>
					<path fill="#90D4D7" d="M398.546,98.455l-8.843-1.581c0.878,4.436,3.556,8.215,7.235,10.57L398.546,98.455z"/>
					<path fill="#90D4D7" d="M408.236,100.188l-6.737-1.205l-1.768,9.889c1.856,0.733,3.873,1.149,5.99,1.149
						c0.258,0,0.509-0.027,0.764-0.039L408.236,100.188z"/>
					<path fill="#90D4D7" d="M413.407,88.315l8.155,1.458c-0.979-3.978-3.399-7.389-6.696-9.62L413.407,88.315z"/>
					<path fill="#90D4D7" d="M400.764,86.054l1.488-8.323c-4.162,0.901-7.735,3.382-10.051,6.792L400.764,86.054z"/>
				</g>
			</g>
			<path fill="#7E4344" d="M387.702,44.57c0.471-2.671-1.237-5.205-3.811-5.657c-2.575-0.453-5.045,1.347-5.514,4.019
				l-54.898,312.289l9.077,3.043L387.702,44.57z"/>
			<path fill="#7E4344" d="M309.938,432.254c-0.472,2.672,1.235,5.205,3.81,5.656c2.575,0.453,5.045-1.346,5.514-4.018l3.834-21.809
				h-9.611L309.938,432.254z"/>
			<polygon fill="#D3BE8A" points="318.685,388.188 305.616,382.895 305.616,412.084 314.483,412.084 324.095,412.084 
				340.366,412.084 340.366,396.969 327.656,391.822 			"/>
		</g>
		<g>
			<path fill="#FEFDED" d="M274.434,341.641c-2.191,0.299-5.277,0.615-9.592,0.875l-65.541,46.439l-3.477,17.65l26.408-0.141
				l58.219-41.25L274.434,341.641z"/>
			<g>
				<path fill="#EDDC9D" d="M264.842,342.516c-5.611,0.34-13.291,0.59-23.768,0.59c-33.25,0-34.75-3.5-34.75-3.5l-33.75,11.25
					l10.084,30.25l19.666-7.5l-3.023,15.35L264.842,342.516z"/>
				<path fill="#EDDC9D" d="M310.637,350.418l-29.811-9.381l-1.377-0.432c0,0-1.01,0.49-5.016,1.035l6.018,23.574l-58.219,41.25
					l68.342-0.359l-2.727-11.906l-4.773-20.844l16.75,7.5L310.637,350.418z"/>
			</g>
			<polygon fill="#D3BE8A" points="196.543,375.793 192.793,377.293 182.861,347.131 186.658,345.877 			"/>
			<polygon fill="#D3BE8A" points="290.418,376.668 286.773,375.045 295.98,345.824 299.699,346.98 			"/>
			<circle fill="#EF3E5B" cx="246.824" cy="361.23" r="8.125"/>
			<polygon fill="#FFC446" points="255.311,376.795 264.949,360.1 274.59,376.795 			"/>
			<circle fill="#23AE92" cx="243.824" cy="384.355" r="8.125"/>
		</g>
		<g>
			<polygon fill="#7E4344" points="210.741,406.688 207.074,441.855 280.408,441.855 277.908,406.188 			"/>
			<path fill="#693C3C" d="M210.741,412.063c-0.054,0.033-0.646,5.543-0.646,5.543s6.583-4.938,6.646-7.063l-2.854-2.271
				C213.887,408.271,212.449,411,210.741,412.063z"/>
			<path fill="#693C3C" d="M264.965,412.73l3.188-2.063c0,0,4.215,4.313,9.715,4.77l0.541,4.168
				C278.408,419.605,269.398,418.605,264.965,412.73z"/>
			<polygon fill="#693C3C" points="208.824,430.605 278.992,430.605 279.492,434.521 208.324,434.521 			"/>
		</g>
		<g>
			<polygon fill="#FEFDED" points="204.242,473.521 283.408,473.521 287.701,522.105 200.324,522.105 			"/>
			<polygon fill="#EDDC9D" points="199.824,522.73 287.701,522.605 288.701,533.48 199.241,533.521 			"/>
			<path fill="#EDDC9D" d="M211.387,473.043v7.188h0.045c0.203,0.998,1.085,1.75,2.143,1.75c1.059,0,1.941-0.752,2.145-1.75h0.043
				v-7.188H211.387z"/>
			<path fill="#EDDC9D" d="M220.762,473.021v7.188h0.045c0.203,0.998,1.085,1.75,2.143,1.75c1.059,0,1.941-0.752,2.145-1.75h0.043
				v-7.188H220.762z"/>
			<path fill="#EDDC9D" d="M230.804,473.043v7.188h0.044c0.203,0.998,1.086,1.75,2.144,1.75s1.94-0.752,2.144-1.75h0.044v-7.188
				H230.804z"/>
			<path fill="#EDDC9D" d="M253.179,473.043v7.188h0.044c0.203,0.998,1.086,1.75,2.144,1.75c1.059,0,1.94-0.752,2.144-1.75h0.044
				v-7.188H253.179z"/>
			<path fill="#EDDC9D" d="M262.555,473.043v7.188h0.043c0.203,0.998,1.086,1.75,2.145,1.75s1.939-0.752,2.143-1.75h0.045v-7.188
				H262.555z"/>
			<path fill="#EDDC9D" d="M272.617,473.084v7.188h0.043c0.203,0.998,1.086,1.75,2.145,1.75s1.939-0.752,2.143-1.75h0.045v-7.188
				H272.617z"/>
			<g>
				<path fill="#FEFDED" d="M209.574,533.605c0.825,0.32,1.176,1.404,0.782,2.418l0,0c-0.394,1.014-1.382,1.576-2.207,1.256
					l-8.829-3.424c-0.825-0.32-1.176-1.404-0.781-2.418l0,0c0.393-1.014,1.38-1.578,2.207-1.258L209.574,533.605z"/>
				<path fill="#FEFDED" d="M207.24,539.648c0.826,0.318,1.176,1.402,0.783,2.418l0,0c-0.395,1.012-1.382,1.576-2.207,1.254
					l-8.829-3.422c-0.825-0.32-1.176-1.406-0.782-2.42l0,0c0.393-1.014,1.381-1.576,2.207-1.256L207.24,539.648z"/>
				<g>
					<path fill="#7E4344" d="M240.866,544.355c1.652,0,3.235,0.283,4.718,0.785c-0.032-0.133-0.062-0.268-0.099-0.398l-0.536-11.012
						l-36.605-0.324c-1.659-0.799-3.513-1.26-5.478-1.26c-6.996,0-12.667,5.672-12.667,12.668v3.498
						c0,5.289,3.243,9.816,7.847,11.713c-0.021-0.182-0.055-0.359-0.055-0.545c0-2.623,2.126-4.75,4.75-4.75s4.75,2.127,4.75,4.75
						c0,0.344-0.04,0.676-0.11,1h4.096c-0.07-0.324-0.11-0.656-0.11-1c0-2.623,2.126-4.75,4.75-4.75s4.75,2.127,4.75,4.75
						c0,0.344-0.04,0.676-0.11,1h5.43c-0.042-0.453-0.069-0.912-0.069-1.375C226.116,550.959,232.721,544.355,240.866,544.355z"/>
					<path fill="#FEFDED" d="M209.449,533.605c0.824,0.32,1.175,1.404,0.781,2.418l0,0c-0.393,1.014-1.381,1.576-2.207,1.256
						l-8.828-3.424c-0.826-0.32-1.176-1.404-0.782-2.418l0,0c0.394-1.014,1.38-1.578,2.207-1.258L209.449,533.605z"/>
					<path fill="#FEFDED" d="M207.115,539.648c0.825,0.318,1.176,1.402,0.782,2.418l0,0c-0.394,1.012-1.382,1.576-2.207,1.254
						l-8.829-3.422c-0.825-0.32-1.176-1.406-0.781-2.42l0,0c0.393-1.014,1.38-1.576,2.207-1.256L207.115,539.648z"/>
					<path fill="#683C3C" d="M245.693,550.418h0.068l-0.016-0.324c0.124-0.688,0.203-1.391,0.203-2.113
						c0-0.98-0.137-1.928-0.365-2.84c-1.482-0.502-3.065-0.785-4.718-0.785c-8.146,0-14.75,6.604-14.75,14.75
						c0,0.463,0.027,0.922,0.069,1.375h6.549C239.15,560.48,244.494,556.154,245.693,550.418z"/>
					<path fill="#683C3C" d="M216.116,554.73c-2.624,0-4.75,2.127-4.75,4.75c0,0.344,0.04,0.676,0.11,1h9.279
						c0.07-0.324,0.11-0.656,0.11-1C220.866,556.857,218.74,554.73,216.116,554.73z"/>
					<path fill="#683C3C" d="M202.741,554.73c-2.624,0-4.75,2.127-4.75,4.75c0,0.186,0.034,0.363,0.055,0.545
						c1.487,0.611,3.112,0.955,4.82,0.955c1.241,0,2.437-0.188,3.569-0.52c0.133,0.004,0.262,0.02,0.396,0.02h0.55
						c0.07-0.324,0.11-0.656,0.11-1C207.491,556.857,205.365,554.73,202.741,554.73z"/>
				</g>
				<g>
					<path fill="#7E4344" d="M284.701,544.355c1.652,0,3.234,0.283,4.717,0.785c-0.031-0.133-0.061-0.268-0.098-0.398l-0.537-11.012
						l-36.605-0.324c-1.66-0.799-3.514-1.26-5.479-1.26c-6.996,0-12.666,5.672-12.666,12.668v3.498
						c0,5.289,3.242,9.816,7.846,11.713c-0.02-0.182-0.055-0.359-0.055-0.545c0-2.623,2.127-4.75,4.75-4.75
						c2.624,0,4.75,2.127,4.75,4.75c0,0.344-0.04,0.676-0.109,1h4.095c-0.069-0.324-0.109-0.656-0.109-1
						c0-2.623,2.126-4.75,4.751-4.75c2.623,0,4.75,2.127,4.75,4.75c0,0.344-0.041,0.676-0.111,1h5.43
						c-0.041-0.453-0.068-0.912-0.068-1.375C269.951,550.959,276.555,544.355,284.701,544.355z"/>
					<path fill="#FEFDED" d="M253.282,533.605c0.825,0.32,1.175,1.404,0.782,2.418l0,0c-0.394,1.014-1.381,1.576-2.207,1.256
						l-8.828-3.424c-0.826-0.32-1.176-1.404-0.783-2.418l0,0c0.394-1.014,1.381-1.578,2.207-1.258L253.282,533.605z"/>
					<path fill="#FEFDED" d="M250.949,539.648c0.824,0.318,1.175,1.402,0.781,2.418l0,0c-0.393,1.012-1.381,1.576-2.207,1.254
						l-8.828-3.422c-0.826-0.32-1.176-1.406-0.782-2.42l0,0c0.394-1.014,1.38-1.576,2.207-1.256L250.949,539.648z"/>
					<path fill="#683C3C" d="M289.527,550.418h0.068l-0.016-0.324c0.125-0.688,0.203-1.391,0.203-2.113
						c0-0.98-0.137-1.928-0.365-2.84c-1.482-0.502-3.064-0.785-4.717-0.785c-8.146,0-14.75,6.604-14.75,14.75
						c0,0.463,0.027,0.922,0.068,1.375h6.549C282.984,560.48,288.328,556.154,289.527,550.418z"/>
					<path fill="#683C3C" d="M259.951,554.73c-2.625,0-4.751,2.127-4.751,4.75c0,0.344,0.04,0.676,0.109,1h9.28
						c0.07-0.324,0.111-0.656,0.111-1C264.701,556.857,262.574,554.73,259.951,554.73z"/>
					<path fill="#683C3C" d="M246.574,554.73c-2.623,0-4.75,2.127-4.75,4.75c0,0.186,0.035,0.363,0.055,0.545
						c1.487,0.611,3.113,0.955,4.82,0.955c1.241,0,2.438-0.188,3.57-0.52c0.133,0.004,0.262,0.02,0.395,0.02h0.551
						c0.069-0.324,0.109-0.656,0.109-1C251.324,556.857,249.198,554.73,246.574,554.73z"/>
				</g>
			</g>
		</g>
	</g>
	<path fill="#DA7F56" d="M388.889,197.38c-6.404-69.365-69.299-123.82-145.953-123.82c-76.417,0-139.158,54.121-145.891,123.18
		c-0.396,4.059-0.609,8.166-0.609,12.32c0,29.625,10.287,57.025,27.729,79.325c26.613,34.029,69.894,56.176,118.771,56.176
		c49.811,0,93.808-22.998,120.277-58.135c16.525-21.938,26.224-48.602,26.224-77.365
		C389.437,205.125,389.244,201.231,388.889,197.38z"/>
	<circle fill="#DE6D56" cx="168.12" cy="263.542" r="28.667"/>
	<circle fill="#DE6D56" cx="300.12" cy="263.542" r="28.667"/>
	<ellipse cx="267.702" cy="240.06" rx="12.75" ry="15"/>
	<ellipse cx="184.703" cy="240.06" rx="12.75" ry="15"/>
	<path fill="#CA5941" d="M207.787,259.865c-0.041,0-0.081,0-0.123-0.003c-1.371-0.067-2.432-1.218-2.376-2.589
		c0.007-0.146,0.806-14.564,18.665-14.564c17.785,0,18.982,13.681,18.993,13.818c0.1,1.377-0.937,2.574-2.313,2.675
		c-1.381,0.103-2.574-0.937-2.674-2.313c-0.084-0.92-1.205-9.18-14.006-9.18c-12.748,0-13.613,8.786-13.67,9.788
		C210.208,258.826,209.105,259.865,207.787,259.865z"/>
	<path fill="#B13E3C" d="M211.956,281.057c5.512,11.91,17.364,20.152,31.101,20.152c18.354,0,33.349-14.709,34.341-33.233
		L211.956,281.057z"/>
	<g>
		<path fill="#DA7F56" d="M95.552,416.311l86.919-35.205l-10.25-30.25l-69.561,23.311l-6.225-5.793
			c-1.139-1.387-2.865-2.27-4.799-2.27c-3.429,0-6.209,2.779-6.209,6.209c0,0.857,0.174,1.672,0.487,2.414l-0.111,0.086l0.345,0.398
			c0.439,0.832,1.064,1.547,1.816,2.1l1.27,1.467l-15.398,7.051c-2.592,0.66-4.512,3.004-4.512,5.803
			c0,3.311,2.684,5.994,5.995,5.994c1.314,0,2.526-0.428,3.515-1.145l3.855-1.646l0.051,0.725l-7.52,3.234l0.005,0.02
			c-2.087,0.914-3.546,2.994-3.546,5.418c0,3.268,2.648,5.916,5.916,5.916c1.367,0,2.621-0.467,3.623-1.246l5.939-2.357l0.03-0.291
			l1.032,0.541l-4.75,2.125l0,0c-2.262,0.838-3.875,3.01-3.875,5.563c0,3.279,2.658,5.938,5.938,5.938
			c0.978,0,1.898-0.242,2.711-0.66l7.289-3.34L95.552,416.311z"/>
		<polygon fill="#DA7F56" points="206.971,441.48 204.137,473.563 283.055,473.563 280.387,441.564 		"/>
		<path fill="#DA7F56" d="M403.836,396.48c0.988,0.717,2.199,1.145,3.514,1.145c3.313,0,5.996-2.684,5.996-5.994
			c0-2.799-1.92-5.143-4.514-5.803l-15.396-7.051l1.27-1.467c0.752-0.553,1.377-1.268,1.816-2.1l0.344-0.398l-0.111-0.086
			c0.314-0.742,0.486-1.557,0.486-2.414c0-3.43-2.779-6.209-6.209-6.209c-1.932,0-3.658,0.883-4.797,2.27l-6.225,5.793
			l-47.453-15.902l-9.077-3.043l-13.03-4.365l-10.25,30.25l4.417,1.789l13.068,5.293l8.972,3.635l12.71,5.146l47.751,19.342
			l0.02,0.107l7.289,3.34c0.813,0.418,1.732,0.66,2.711,0.66c3.279,0,5.938-2.658,5.938-5.938c0-2.553-1.615-4.725-3.875-5.563l0,0
			l-4.75-2.125l1.031-0.541l0.031,0.291l5.938,2.357c1.002,0.779,2.258,1.246,3.625,1.246c3.268,0,5.916-2.648,5.916-5.916
			c0-2.424-1.459-4.504-3.547-5.418l0.006-0.02l-7.52-3.234l0.049-0.725L403.836,396.48z"/>
	</g>
	<g>
		<g>
			<path fill="#FFC446" d="M319.553,83.688c-72-48-156.25,0.542-156.25,0.542c-7.125,1.375-21.625-5.25-23.625-6.875
				c-1.323-1.075-5.102-2.912-7.512-4.035c-8.549-5.361-18.657-8.465-29.494-8.465c-25.158,0-46.404,16.707-53.274,39.629
				c-2.411,6.908-3.762,14.551-3.762,22.6c0,6.25,0.82,12.253,2.31,17.861c1.334,7.366,4.117,14.226,8.043,20.279
				c6.866,12.981,18.712,22.917,33,27.259c1.753,0.645,3.552,1.192,5.383,1.66c5.563,1.911,10.683,3.045,10.683,3.045
				c41.001,12,64.333-29.833,64.333-29.833l20-3.5c11.5,14,31,19.333,53.5,20.333s37.666-13.958,37.666-13.958s7,9.25,27.625,10
				s30.375-11.375,30.375-11.375c13.875,27.625,49.5,32.667,49.5,32.667S391.553,131.688,319.553,83.688z"/>
			<path fill="#FFC446" d="M97.045,196.74l-0.325,0.614l-0.334,6.667c0,0-22.166,30.166-16.083,50.333
				c9.242,30.642,35.447,33.818,43.861,34.031c-17.441-22.299-27.729-49.7-27.729-79.325
				C96.436,204.906,96.649,200.798,97.045,196.74z"/>
			<path fill="#FFC446" d="M405.719,226.854l-16.83-29.474c0.355,3.851,0.548,7.744,0.548,11.68
				c0,28.764-9.698,55.428-26.224,77.365l7.456-0.268c21.442-2.031,38.218-20.08,38.218-42.054
				C408.887,238.15,405.719,226.854,405.719,226.854z"/>
		</g>
		<path fill="#FFDC63" d="M112.031,197.699c-1.984,0-3.15-0.1-3.218-0.106c-1.374-0.132-2.382-1.353-2.249-2.728
			c0.132-1.373,1.35-2.383,2.725-2.25l0,0c1.524,0.141,37.546,3.127,54.287-29.648c0.348-0.68,0.682-1.344,1.004-1.995
			c-3.629-4.413-6.082-10.545-6.521-16.689c-0.818-11.452,4.227-18.416,9.39-19.153c2.509-0.359,5.97,0.366,8.187,3.47
			c3.874,5.423,2.177,15.974-5.037,31.398c0.107,0.09,0.217,0.179,0.326,0.266c2.939,2.33,6.298,3.215,9.983,2.622
			c3.071-0.491,5.653-1.229,7.772-2.088c-1.217-1.815-1.923-3.63-2.111-5.435c-0.272-2.602,0.567-5.148,2.365-7.17
			c1.355-1.525,3.36-2.174,5.497-1.774c2.841,0.528,5.316,2.754,6.462,5.808c0.686,1.828,0.425,3.93-0.732,5.922
			c-0.815,1.402-2.016,2.711-3.537,3.895c0.505,0.42,1.058,0.854,1.663,1.301c9.151,6.754,26.185,19.328,63.76,11.563
			c1.35-0.277,2.674,0.59,2.954,1.942c0.279,1.353-0.59,2.675-1.942,2.954c-39.756,8.216-57.961-5.219-67.74-12.438
			c-1.181-0.871-2.243-1.744-3.188-2.621c-2.962,1.391-6.505,2.451-10.433,3.079c-4.829,0.774-9.429-0.343-13.339-3.229
			c-0.109,0.215-0.219,0.431-0.329,0.647C152.751,195.152,122.026,197.699,112.031,197.699z M193.218,151.304
			c-0.359,0-0.495,0.153-0.547,0.211c-0.603,0.678-1.288,1.806-1.129,3.328c0.094,0.896,0.488,2.096,1.564,3.576
			c1.33-0.957,2.232-1.926,2.732-2.786c0.225-0.388,0.573-1.118,0.373-1.652c-0.598-1.594-1.784-2.479-2.695-2.648
			C193.403,151.313,193.304,151.304,193.218,151.304z M168.607,130.051c-0.233,0-0.396,0.02-0.451,0.028
			c-2.105,0.3-5.766,4.671-5.11,13.847c0.307,4.291,1.76,8.545,3.956,11.927c7.575-16.872,5.819-22.591,4.565-24.347
			C170.66,130.236,169.313,130.051,168.607,130.051z"/>
	</g>
</g>
</svg>
