<?xml version="1.0" encoding="utf-8"?>
<!-- Generator: Adobe Illustrator 16.0.0, SVG Export Plug-In . SVG Version: 6.00 Build 0)  -->
<!DOCTYPE svg PUBLIC "-//W3C//DTD SVG 1.1 Tiny//EN" "http://www.w3.org/Graphics/SVG/1.1/DTD/svg11-tiny.dtd">
<svg version="1.1" baseProfile="tiny" id="Layer_1" xmlns="http://www.w3.org/2000/svg" xmlns:xlink="http://www.w3.org/1999/xlink"
	 x="0px" y="0px" width="500px" height="600px" viewBox="0 0 500 600" xml:space="preserve">
<g>
	<g>
		<g>
			<path fill="#D3BE8A" d="M336.088,413.727c0,26.697-21.643,48.34-48.34,48.34h-78.551c-26.699,0-48.341-21.643-48.341-48.34
				v-47.535c0-26.697,21.642-48.338,48.341-48.338h78.551c26.697,0,48.34,21.641,48.34,48.338V413.727z"/>
			<path fill="#B9A17A" d="M329.08,343.771c-33.938-6.268-35.881,32.539-35.992,36.75l-132.257,0.166v5.75l132.75-0.166v76
				l5.502-0.834l0.248-75.166h0.125v-5.75h-0.125v-0.25h-0.443c8.773-40.076,27.443-29.375,27.443-29.375l4.75,2.625l2.5-2.666
				L329.08,343.771z"/>
		</g>
		<g>
			<polygon fill="#FEFDED" points="363.34,137.038 371.361,88.474 379.385,39.91 417.432,71.14 455.479,102.37 409.408,119.704 			
				"/>
			<g>
				<path fill="#90D4D7" d="M422.248,93.688c0-0.265-0.027-0.523-0.039-0.786l-9.137-1.634l-1.16,6.495l9.281,1.66
					C421.863,97.636,422.248,95.708,422.248,93.688z"/>
				
					<rect x="402.748" y="90.086" transform="matrix(0.9844 0.1761 -0.1761 0.9844 22.7921 -70.0659)" fill="#90D4D7" width="6.843" height="6.598"/>
				<path fill="#90D4D7" d="M410.648,87.787l1.635-9.145c-1.957-0.829-4.109-1.288-6.367-1.288c-0.121,0-0.238,0.016-0.359,0.018
					l-1.646,9.21L410.648,87.787z"/>
				<path fill="#90D4D7" d="M400.43,89.007l-9.551-1.708c-0.834,1.962-1.297,4.121-1.297,6.388c0,0.028,0.004,0.055,0.004,0.083
					l9.682,1.731L400.43,89.007z"/>
				<path fill="#90D4D7" d="M411.383,100.716l-1.576,8.819c4.225-1.035,7.795-3.705,10.014-7.311L411.383,100.716z"/>
				<path fill="#90D4D7" d="M398.74,98.455l-8.844-1.581c0.879,4.436,3.557,8.215,7.236,10.57L398.74,98.455z"/>
				<path fill="#90D4D7" d="M408.43,100.188l-6.736-1.205l-1.768,9.889c1.855,0.733,3.873,1.149,5.99,1.149
					c0.258,0,0.508-0.027,0.764-0.039L408.43,100.188z"/>
				<path fill="#90D4D7" d="M413.602,88.315l8.154,1.458c-0.979-3.978-3.398-7.389-6.695-9.62L413.602,88.315z"/>
				<path fill="#90D4D7" d="M400.957,86.054l1.488-8.323c-4.162,0.901-7.734,3.382-10.051,6.792L400.957,86.054z"/>
			</g>
		</g>
		<path fill="#7E4344" d="M387.896,44.57c0.471-2.671-1.238-5.205-3.811-5.657c-2.576-0.453-5.045,1.347-5.514,4.019
			l-54.898,312.289l9.076,3.043L387.896,44.57z"/>
		<path fill="#7E4344" d="M310.131,432.254c-0.471,2.672,1.236,5.205,3.811,5.656c2.574,0.453,5.045-1.346,5.514-4.018l3.834-21.809
			h-9.611L310.131,432.254z"/>
		<polygon fill="#D3BE8A" points="318.879,388.188 305.811,382.895 305.811,412.084 314.678,412.084 324.289,412.084 
			340.561,412.084 340.561,396.969 327.85,391.822 		"/>
	</g>
	<g>
		<path fill="#FEFDED" d="M274.627,341.641c-2.191,0.299-5.277,0.615-9.592,0.875l-65.54,46.439l-3.477,17.65l26.407-0.141
			l58.219-41.25L274.627,341.641z"/>
		<g>
			<path fill="#EDDC9D" d="M265.035,342.516c-5.611,0.34-13.291,0.59-23.767,0.59c-33.25,0-34.75-3.5-34.75-3.5l-33.75,11.25
				l10.083,30.25l19.667-7.5l-3.023,15.35L265.035,342.516z"/>
			<path fill="#EDDC9D" d="M310.83,350.418l-29.811-9.381l-1.377-0.432c0,0-1.01,0.49-5.016,1.035l6.018,23.574l-58.219,41.25
				l68.342-0.359l-2.727-11.906l-4.773-20.844l16.75,7.5L310.83,350.418z"/>
		</g>
		<polygon fill="#D3BE8A" points="196.737,375.793 192.987,377.293 183.056,347.131 186.852,345.877 		"/>
		<polygon fill="#D3BE8A" points="290.611,376.668 286.967,375.045 296.174,345.824 299.893,346.98 		"/>
		<circle fill="#EF3E5B" cx="247.019" cy="361.23" r="8.125"/>
		<polygon fill="#FFC446" points="255.504,376.795 265.143,360.1 274.783,376.795 		"/>
		<circle fill="#23AE92" cx="244.019" cy="384.355" r="8.125"/>
	</g>
	<g>
		<polygon fill="#7E4344" points="210.935,406.688 207.269,441.855 280.602,441.855 278.102,406.188 		"/>
		<path fill="#693C3C" d="M210.935,412.063c-0.053,0.033-0.646,5.543-0.646,5.543s6.583-4.938,6.646-7.063l-2.854-2.271
			C214.081,408.271,212.644,411,210.935,412.063z"/>
		<path fill="#693C3C" d="M265.158,412.73l3.188-2.063c0,0,4.215,4.313,9.715,4.77l0.541,4.168
			C278.602,419.605,269.592,418.605,265.158,412.73z"/>
		<polygon fill="#693C3C" points="209.019,430.605 279.186,430.605 279.686,434.521 208.519,434.521 		"/>
	</g>
	<g>
		<polygon fill="#FEFDED" points="204.436,473.521 283.602,473.521 287.895,522.105 200.519,522.105 		"/>
		<polygon fill="#EDDC9D" points="200.019,522.73 287.895,522.605 288.895,533.48 199.435,533.521 		"/>
		<path fill="#EDDC9D" d="M211.581,473.043v7.188h0.044c0.203,0.998,1.085,1.75,2.144,1.75s1.94-0.752,2.144-1.75h0.044v-7.188
			H211.581z"/>
		<path fill="#EDDC9D" d="M220.956,473.021v7.188H221c0.203,0.998,1.085,1.75,2.144,1.75s1.94-0.752,2.144-1.75h0.044v-7.188
			H220.956z"/>
		<path fill="#EDDC9D" d="M230.998,473.043v7.188h0.044c0.203,0.998,1.085,1.75,2.144,1.75s1.94-0.752,2.144-1.75h0.044v-7.188
			H230.998z"/>
		<path fill="#EDDC9D" d="M253.373,473.043v7.188h0.043c0.203,0.998,1.086,1.75,2.145,1.75s1.939-0.752,2.143-1.75h0.045v-7.188
			H253.373z"/>
		<path fill="#EDDC9D" d="M262.748,473.043v7.188h0.043c0.203,0.998,1.086,1.75,2.145,1.75s1.939-0.752,2.143-1.75h0.045v-7.188
			H262.748z"/>
		<path fill="#EDDC9D" d="M272.811,473.084v7.188h0.043c0.203,0.998,1.086,1.75,2.145,1.75s1.939-0.752,2.143-1.75h0.045v-7.188
			H272.811z"/>
		<g>
			<path fill="#FEFDED" d="M209.768,533.605c0.825,0.32,1.175,1.404,0.782,2.418l0,0c-0.394,1.014-1.381,1.576-2.207,1.256
				l-8.829-3.424c-0.826-0.32-1.176-1.404-0.782-2.418l0,0c0.393-1.014,1.38-1.578,2.207-1.258L209.768,533.605z"/>
			<path fill="#FEFDED" d="M207.435,539.648c0.825,0.318,1.175,1.402,0.782,2.418l0,0c-0.394,1.012-1.381,1.576-2.207,1.254
				l-8.829-3.422c-0.826-0.32-1.176-1.406-0.782-2.42l0,0c0.393-1.014,1.38-1.576,2.207-1.256L207.435,539.648z"/>
			<g>
				<path fill="#7E4344" d="M241.06,544.355c1.652,0,3.235,0.283,4.718,0.785c-0.033-0.133-0.062-0.268-0.099-0.398l-0.536-11.012
					l-36.605-0.324c-1.66-0.799-3.513-1.26-5.478-1.26c-6.996,0-12.667,5.672-12.667,12.668v3.498c0,5.289,3.243,9.816,7.847,11.713
					c-0.021-0.182-0.055-0.359-0.055-0.545c0-2.623,2.126-4.75,4.75-4.75s4.75,2.127,4.75,4.75c0,0.344-0.041,0.676-0.11,1h4.095
					c-0.069-0.324-0.11-0.656-0.11-1c0-2.623,2.126-4.75,4.75-4.75s4.75,2.127,4.75,4.75c0,0.344-0.041,0.676-0.11,1h5.429
					c-0.042-0.453-0.069-0.912-0.069-1.375C226.31,550.959,232.914,544.355,241.06,544.355z"/>
				<path fill="#FEFDED" d="M209.643,533.605c0.825,0.32,1.175,1.404,0.782,2.418l0,0c-0.394,1.014-1.381,1.576-2.207,1.256
					l-8.829-3.424c-0.826-0.32-1.176-1.404-0.782-2.418l0,0c0.393-1.014,1.38-1.578,2.207-1.258L209.643,533.605z"/>
				<path fill="#FEFDED" d="M207.309,539.648c0.825,0.318,1.175,1.402,0.782,2.418l0,0c-0.394,1.012-1.381,1.576-2.207,1.254
					l-8.829-3.422c-0.826-0.32-1.176-1.406-0.782-2.42l0,0c0.393-1.014,1.38-1.576,2.207-1.256L207.309,539.648z"/>
				<path fill="#683C3C" d="M245.888,550.418h0.068l-0.016-0.324c0.124-0.688,0.203-1.391,0.203-2.113
					c0-0.98-0.136-1.928-0.365-2.84c-1.483-0.502-3.066-0.785-4.718-0.785c-8.146,0-14.75,6.604-14.75,14.75
					c0,0.463,0.027,0.922,0.069,1.375h6.548C239.344,560.48,244.688,556.154,245.888,550.418z"/>
				<path fill="#683C3C" d="M216.31,554.73c-2.624,0-4.75,2.127-4.75,4.75c0,0.344,0.041,0.676,0.11,1h9.28
					c0.069-0.324,0.11-0.656,0.11-1C221.06,556.857,218.934,554.73,216.31,554.73z"/>
				<path fill="#683C3C" d="M202.935,554.73c-2.624,0-4.75,2.127-4.75,4.75c0,0.186,0.034,0.363,0.055,0.545
					c1.487,0.611,3.113,0.955,4.82,0.955c1.241,0,2.437-0.188,3.57-0.52c0.132,0.004,0.262,0.02,0.395,0.02h0.55
					c0.069-0.324,0.11-0.656,0.11-1C207.685,556.857,205.559,554.73,202.935,554.73z"/>
			</g>
			<g>
				<path fill="#7E4344" d="M284.895,544.355c1.652,0,3.234,0.283,4.717,0.785c-0.031-0.133-0.061-0.268-0.098-0.398l-0.537-11.012
					l-36.605-0.324c-1.659-0.799-3.513-1.26-5.478-1.26c-6.996,0-12.667,5.672-12.667,12.668v3.498
					c0,5.289,3.243,9.816,7.847,11.713c-0.021-0.182-0.055-0.359-0.055-0.545c0-2.623,2.126-4.75,4.75-4.75s4.75,2.127,4.75,4.75
					c0,0.344-0.04,0.676-0.11,1h4.096c-0.07-0.324-0.109-0.656-0.109-1c0-2.623,2.125-4.75,4.75-4.75c2.623,0,4.75,2.127,4.75,4.75
					c0,0.344-0.041,0.676-0.111,1h5.43c-0.041-0.453-0.068-0.912-0.068-1.375C270.145,550.959,276.748,544.355,284.895,544.355z"/>
				<path fill="#FEFDED" d="M253.477,533.605c0.824,0.32,1.175,1.404,0.781,2.418l0,0c-0.393,1.014-1.381,1.576-2.207,1.256
					l-8.828-3.424c-0.826-0.32-1.176-1.404-0.782-2.418l0,0c0.393-1.014,1.38-1.578,2.207-1.258L253.477,533.605z"/>
				<path fill="#FEFDED" d="M251.143,539.648c0.825,0.318,1.176,1.402,0.782,2.418l0,0c-0.394,1.012-1.381,1.576-2.207,1.254
					l-8.829-3.422c-0.826-0.32-1.176-1.406-0.782-2.42l0,0c0.393-1.014,1.38-1.576,2.207-1.256L251.143,539.648z"/>
				<path fill="#683C3C" d="M289.721,550.418h0.068l-0.016-0.324c0.125-0.688,0.203-1.391,0.203-2.113
					c0-0.98-0.137-1.928-0.365-2.84c-1.482-0.502-3.064-0.785-4.717-0.785c-8.146,0-14.75,6.604-14.75,14.75
					c0,0.463,0.027,0.922,0.068,1.375h6.549C283.178,560.48,288.521,556.154,289.721,550.418z"/>
				<path fill="#683C3C" d="M260.145,554.73c-2.625,0-4.75,2.127-4.75,4.75c0,0.344,0.039,0.676,0.109,1h9.279
					c0.07-0.324,0.111-0.656,0.111-1C264.895,556.857,262.768,554.73,260.145,554.73z"/>
				<path fill="#683C3C" d="M246.769,554.73c-2.624,0-4.75,2.127-4.75,4.75c0,0.186,0.034,0.363,0.055,0.545
					c1.487,0.611,3.113,0.955,4.82,0.955c1.241,0,2.437-0.188,3.57-0.52c0.132,0.004,0.262,0.02,0.395,0.02h0.55
					c0.07-0.324,0.11-0.656,0.11-1C251.519,556.857,249.392,554.73,246.769,554.73z"/>
			</g>
		</g>
	</g>
</g>
<ellipse fill="#DA7F56" cx="243.13" cy="209.06" rx="146.5" ry="135.5"/>
<circle fill="#DE6D56" cx="168.313" cy="263.542" r="28.667"/>
<circle fill="#DE6D56" cx="300.313" cy="263.542" r="28.667"/>
<g>
	<path fill="#E14935" d="M106.98,161.895c0,0-29,60.249,14,122.749c0,0-55-19-75.5-45.25l64.167-93.833
		c0,0,32.667-65,106.333-75.667s129,19.666,163.334,80c34.332,60.334,55.332,95.334,55.332,95.334l-21.666,15.333l-8.666-9.334
		l1,13.667c0,0-28.334,13.999-37.668,16.333c0,0,34.084-53.583,13.334-111.333c0,0-28.75,7-53.5-17.25c0,0-24.5,53.75-82.5,50.5
		c-58-3.25-76.5-36.25-83.75-55C161.23,148.144,138.98,171.146,106.98,161.895z"/>
	<path fill="#C03634" d="M230.98,201.144l-7.583-67.459l6.5,1.125l7.375,67.334C237.271,202.144,232.146,201.894,230.98,201.144z"/>
	<polygon fill="#C03634" points="261.563,139.727 268.396,201.123 274.021,199.81 267.813,141.06 	"/>
	<polygon fill="#C03634" points="274.459,143.54 280.646,144.79 286.146,194.81 280.396,197.31 	"/>
	<path fill="#C03634" d="M385.271,234.685l12.75,33.625l-5.375,3l-10-26.125C382.646,245.185,384.521,240.06,385.271,234.685z"/>
	<path fill="#C03634" d="M97.313,206.227L69.271,259.81l5.375,3.375l23.167-43.958C97.813,219.227,97.438,209.227,97.313,206.227z"
		/>
	<path fill="#C03634" d="M99.48,234.393L81.896,267.56l5.625,3l14.292-27.667C101.813,242.893,99.48,236.518,99.48,234.393z"/>
</g>
<ellipse cx="267.896" cy="240.06" rx="12.75" ry="15"/>
<ellipse cx="184.896" cy="240.06" rx="12.75" ry="15"/>
<path fill="#CA5941" d="M207.981,259.865c-0.041,0-0.082,0-0.123-0.003c-1.372-0.067-2.433-1.218-2.376-2.589
	c0.006-0.146,0.805-14.564,18.665-14.564c17.786,0,18.983,13.681,18.994,13.818c0.1,1.377-0.936,2.574-2.313,2.675
	c-1.381,0.103-2.574-0.937-2.674-2.313c-0.084-0.92-1.205-9.18-14.006-9.18c-12.747,0-13.613,8.786-13.669,9.788
	C210.402,258.826,209.299,259.865,207.981,259.865z"/>
<path fill="#B13E3C" d="M212.15,281.057c5.512,11.91,17.364,20.152,31.101,20.152c18.355,0,33.349-14.709,34.341-33.233
	L212.15,281.057z"/>
<g>
	<path fill="#DA7F56" d="M95.746,416.311l86.918-35.205l-10.25-30.25l-69.561,23.311l-6.225-5.793
		c-1.139-1.387-2.865-2.27-4.798-2.27c-3.429,0-6.209,2.779-6.209,6.209c0,0.857,0.173,1.672,0.487,2.414l-0.111,0.086l0.345,0.398
		c0.439,0.832,1.064,1.547,1.816,2.1l1.269,1.467l-15.397,7.051c-2.593,0.66-4.512,3.004-4.512,5.803
		c0,3.311,2.684,5.994,5.995,5.994c1.314,0,2.526-0.428,3.514-1.145l3.856-1.646l0.05,0.725l-7.52,3.234l0.005,0.02
		c-2.087,0.914-3.546,2.994-3.546,5.418c0,3.268,2.649,5.916,5.917,5.916c1.367,0,2.622-0.467,3.624-1.246l5.938-2.357l0.031-0.291
		l1.032,0.541l-4.75,2.125l0,0c-2.261,0.838-3.875,3.01-3.875,5.563c0,3.279,2.658,5.938,5.938,5.938
		c0.978,0,1.898-0.242,2.711-0.66l7.289-3.34L95.746,416.311z"/>
	<polygon fill="#DA7F56" points="207.164,441.48 204.331,473.563 283.248,473.563 280.58,441.564 	"/>
	<path fill="#DA7F56" d="M404.029,396.48c0.988,0.717,2.199,1.145,3.514,1.145c3.313,0,5.996-2.684,5.996-5.994
		c0-2.799-1.92-5.143-4.514-5.803l-15.396-7.051l1.27-1.467c0.752-0.553,1.377-1.268,1.816-2.1l0.344-0.398l-0.111-0.086
		c0.314-0.742,0.486-1.557,0.486-2.414c0-3.43-2.779-6.209-6.209-6.209c-1.932,0-3.658,0.883-4.797,2.27l-6.225,5.793
		l-47.453-15.902l-9.076-3.043l-13.031-4.365l-10.25,30.25l4.418,1.789l13.068,5.293l8.971,3.635l12.711,5.146l47.75,19.342
		l0.02,0.107l7.289,3.34c0.813,0.418,1.732,0.66,2.711,0.66c3.279,0,5.938-2.658,5.938-5.938c0-2.553-1.615-4.725-3.875-5.563l0,0
		l-4.75-2.125l1.031-0.541l0.031,0.291l5.938,2.357c1.002,0.779,2.258,1.246,3.625,1.246c3.268,0,5.916-2.648,5.916-5.916
		c0-2.424-1.459-4.504-3.547-5.418l0.006-0.02l-7.52-3.234l0.049-0.725L404.029,396.48z"/>
</g>
</svg>
